<?xml version="1.0" encoding="utf-8"?>
<!-- Generator: Adobe Illustrator 24.2.3, SVG Export Plug-In . SVG Version: 6.00 Build 0)  -->
<svg version="1.1" id="Layer_1" xmlns="http://www.w3.org/2000/svg" xmlns:xlink="http://www.w3.org/1999/xlink" x="0px" y="0px"
	 viewBox="0 0 146.4 85.1" style="enable-background:new 0 0 146.4 85.1;" xml:space="preserve">
<style type="text/css">
	.st0{fill:#75263C;}
</style>
<g id="Grupo_3" transform="translate(0.1)">
	<g id="Grupo_1" transform="translate(-0.044 73.666)">
		<path id="Caminho_1" class="st0" d="M28.9,5.8c0-2.6-1.4-4.1-4.3-4c-2.8,0.1-4.3,1.3-4.3,4c0,2.8,1.7,3.9,4.3,3.8
			C27.3,9.5,28.9,8.6,28.9,5.8 M16.6,5.8c0-2.8,1.9-4.3,4.1-5.1c2.6-0.9,5.4-0.9,7.9,0c2.5,0.9,3.8,2.4,4.1,4.6c0.2,2.1-1,4.2-3,5
			c-3.4,1.7-7.3,1.6-10.6-0.2C17.5,9.3,16.5,7.6,16.6,5.8"/>
		<path id="Caminho_2" class="st0" d="M47.6,0.4h2.5V11h-3.3c-2.5-2.4-5.1-4.9-8-7.6V11H36V0.4h4c2.3,2.2,7.3,7,7.3,7l0.3,0.3"/>
		<path id="Caminho_3" class="st0" d="M87.7,11V0.4h3.7v8.9h8.7c0,0.7,0,1.2,0,1.8L87.7,11L87.7,11z"/>
		<path id="Caminho_4" class="st0" d="M98.2,0.4V2h5v9h3.7V1.9h5V0.4H98.2z"/>
		<path id="Caminho_5" class="st0" d="M114.1,0.4v10.7h12.3V9.3h-8.8V6.6h7V4.8h-7V1.9h8.7V0.4H114.1z"/>
		<path id="Caminho_6" class="st0" d="M67.4,6.3c0.6,0.9,1,2.4-0.1,3.3c-1.5,1-3.2,1.6-5,1.6c-8.1,0.1-9-2.3-9.2-2.8h3.4
			c1.3,0.7,2.7,1.1,4.2,1.1c4,0.1,3.9-1.1,3.9-1.1c0.1-1.1-2.5-1.4-2.5-1.4c-1.1-0.2-3.2-0.5-3.2-0.5c-0.7-0.1-1.3-0.2-2-0.4
			c-0.7-0.2-1.4-0.5-2-1c-1-0.8-1.1-2.2-0.3-3.2c0.1-0.1,0.2-0.2,0.3-0.3c1.3-1,2.9-1.5,4.5-1.4c6.1-0.2,7.4,1.5,7.9,2.2l-2.9,0.5
			c-1.1-0.7-2.3-1-3.5-1c-3.4,0-3.3,1.1-3.3,1.1c-0.1,0.9,2,1.4,2,1.4c1.1,0.2,4.7,0.5,5.4,0.7C64.8,5,66.9,5.4,67.4,6.3z"/>
		<path id="Caminho_7" class="st0" d="M12,7.5C11.5,9,10,9.5,8,9.6c-2.6,0.1-4.3-1-4.3-3.8c0-2.7,1.5-4,4.3-4c2.2,0,3.5,0.8,4.1,2.4
			l3.7-0.2c-0.7-1.6-2.1-2.8-3.7-3.2c-2.6-0.9-5.4-0.9-7.9,0C1.8,1.3,0.1,3.4,0,5.8C-0.1,7.6,0.8,9.2,2.4,10
			c3.3,1.8,7.2,1.9,10.6,0.2c1.2-0.5,2.2-1.5,2.8-2.7L12,7.5z"/>
		<path id="Caminho_8" class="st0" d="M140.2,7.5c-0.5,1.5-2,2.1-4,2.1c-2.6,0.1-4.3-1-4.3-3.8c0-2.7,1.5-4,4.3-4
			c2.2,0,3.5,0.8,4.1,2.4l3.7-0.2c-0.7-1.6-2.1-2.8-3.7-3.2c-2.6-0.9-5.4-0.9-7.9,0c-2.3,0.6-4,2.7-4.1,5.1
			c-0.1,1.8,0.8,3.4,2.4,4.2c3.3,1.8,7.2,1.9,10.6,0.2c1.2-0.5,2.2-1.5,2.8-2.7L140.2,7.5z"/>
		<path id="Caminho_9" class="st0" d="M84,7.8c-0.1,2.8-3.6,3.4-6.7,3.4c-1.6,0-3.2-0.3-4.6-0.9c-1-0.4-1.7-1.4-1.7-2.5
			c-0.1-2.4,0-5,0-7.6h3.5v5.9c0,2.8,0.3,3.3,3.1,3.3c3,0.1,3.8-0.4,3.8-2.2c0-1.8,0-7,0-7H84V7.8z"/>
	</g>
	<path id="Caminho_35" class="st0" d="M0.3,59.8L73.9,0L50.7,46.5l23.1,13.4H0.3z"/>
	<path id="Caminho_36" class="st0" d="M75.1,59.8V0l71.2,62L90.9,45.4L75.1,59.8z"/>
</g>
</svg>
